<?xml version="1.0" encoding="utf-8"?>
<!-- Generator: Adobe Illustrator 16.0.0, SVG Export Plug-In . SVG Version: 6.00 Build 0)  -->
<!DOCTYPE svg PUBLIC "-//W3C//DTD SVG 1.1//EN" "http://www.w3.org/Graphics/SVG/1.1/DTD/svg11.dtd">
<svg version="1.1" xmlns="http://www.w3.org/2000/svg" xmlns:xlink="http://www.w3.org/1999/xlink" x="0px" y="0px" width="60px"
	 height="60px" viewBox="0 0 60 60" enable-background="new 0 0 60 60" xml:space="preserve">
<g id="Texte" display="none">
</g>
<g id="Separation" display="none">
</g>
<g id="Calque_4">
</g>
<g id="Visuel">
	<path fill="#1B1B1C" d="M30,0C13.432,0,0,13.431,0,30s13.432,30,30,30s30-13.431,30-30S46.568,0,30,0z M27.916,21.351v3.265h-3.244
		v-3.13c-6.602,0-6.287,0.622-6.114,6.876h9.358v3.277h-9.358c-0.169,6.25-0.345,6.876,6.114,6.876v-3.13h3.244v3.264v3.276
		c-11.182-0.014-12.78-0.311-13.078-6.945v-3.341v-3.277v-3.422c0.298-6.559,1.896-6.851,13.078-6.864V21.351z M44.702,28.361v3.277
		v3.423c-0.298,6.558-1.897,6.85-13.079,6.863v-3.275v-3.265h3.245v3.13c6.603,0,6.288-0.622,6.114-6.876h-9.359v-3.277h9.357
		c0.169-6.25,0.346-6.876-6.112-6.876v3.131h-3.245v-3.265v-3.276c11.182,0.014,12.781,0.311,13.079,6.946V28.361z"/>
</g>
</svg>
