<?xml version="1.0" standalone="no"?>
<!DOCTYPE svg PUBLIC "-//W3C//DTD SVG 20010904//EN"
 "http://www.w3.org/TR/2001/REC-SVG-20010904/DTD/svg10.dtd">
<svg version="1.0" xmlns="http://www.w3.org/2000/svg"
 width="289.000000pt" height="289.000000pt" viewBox="0 0 289.000000 289.000000"
 preserveAspectRatio="xMidYMid meet">
<metadata>
Created by potrace 1.11, written by Peter Selinger 2001-2013
</metadata>
<g transform="translate(0.000000,289.000000) scale(0.100000,-0.100000)"
fill="#000000" stroke="none">
<path d="M1265 2725 c-681 -94 -1174 -717 -1107 -1399 25 -251 104 -456 251
-653 428 -574 1235 -692 1808 -264 574 428 692 1235 264 1808 -284 381 -745
573 -1216 508z m93 -907 l3 -138 -76 0 -75 0 0 66 0 66 -88 -4 c-100 -5 -145
-25 -162 -71 -5 -17 -10 -72 -10 -123 l0 -94 203 -2 202 -3 0 -70 0 -70 -202
-3 -203 -2 0 -93 c0 -154 30 -187 178 -195 l82 -5 0 67 0 66 75 0 76 0 -3
-137 -3 -138 -95 -3 c-105 -3 -272 12 -334 30 -22 7 -54 27 -72 44 -53 53 -59
100 -59 439 0 339 6 386 59 439 55 54 163 75 381 72 l120 -1 3 -137z m555 117
c150 -39 167 -89 167 -490 0 -411 -19 -459 -191 -496 -29 -6 -126 -12 -214
-13 l-160 -1 -3 138 -3 137 76 0 75 0 0 -66 0 -66 88 4 c100 5 145 25 162 71
5 17 10 72 10 123 l0 94 -202 2 -203 3 0 70 0 70 203 3 202 2 0 91 c0 157 -27
188 -170 197 l-90 5 0 -67 0 -66 -75 0 -75 0 0 133 c0 74 3 137 8 142 12 13
331 -3 395 -20z"/>
</g>
</svg>
