<?xml version="1.0" standalone="no"?>
<!DOCTYPE svg PUBLIC "-//W3C//DTD SVG 20010904//EN"
 "http://www.w3.org/TR/2001/REC-SVG-20010904/DTD/svg10.dtd">
<svg version="1.0" xmlns="http://www.w3.org/2000/svg"
 width="700.000000pt" height="700.000000pt" viewBox="0 0 700.000000 700.000000"
 preserveAspectRatio="xMidYMid meet">
<metadata>
Created by potrace 1.11, written by Peter Selinger 2001-2013
</metadata>
<g transform="translate(0.000000,700.000000) scale(0.100000,-0.100000)"
fill="#000000" stroke="none">
<path d="M3275 6994 c-743 -60 -1397 -314 -1960 -760 -141 -113 -436 -408
-549 -549 -409 -516 -656 -1108 -742 -1780 -25 -196 -25 -614 0 -810 86 -672
333 -1264 742 -1780 113 -141 408 -436 549 -549 516 -409 1110 -657 1780 -742
195 -25 615 -25 810 0 670 85 1264 333 1780 742 141 113 436 408 549 549 409
516 656 1108 742 1780 25 196 25 614 0 810 -86 672 -333 1264 -742 1780 -113
141 -408 436 -549 549 -508 403 -1093 650 -1745 737 -140 19 -543 33 -665 23z
m-15 -2484 l0 -380 -190 0 -190 0 0 181 0 182 -192 -6 c-347 -9 -450 -52 -505
-212 -15 -43 -18 -88 -18 -315 l0 -265 548 -3 547 -2 0 -190 0 -190 -547 -2
-548 -3 -3 -214 c-4 -326 22 -434 123 -502 77 -53 230 -79 463 -79 l132 0 0
180 0 180 190 0 190 0 0 -382 0 -381 -357 6 c-509 9 -720 36 -878 112 -129 62
-209 166 -248 325 -40 160 -42 204 -42 955 0 640 2 742 17 830 52 306 151 424
411 490 179 45 390 61 830 64 l267 1 0 -380z m1283 356 c269 -30 415 -82 508
-184 99 -108 136 -229 159 -517 13 -162 13 -1177 -1 -1346 -38 -495 -170 -630
-666 -685 -79 -8 -291 -17 -495 -21 l-358 -6 0 381 0 382 190 0 190 0 0 -180
0 -180 133 0 c163 0 291 14 381 41 94 28 155 88 179 176 23 80 32 251 22 436
l-7 147 -544 0 -544 0 0 190 0 190 543 0 544 0 7 134 c7 151 0 335 -16 411
-14 64 -33 102 -72 143 -71 76 -173 102 -438 109 l-188 6 0 -182 0 -181 -190
0 -190 0 0 382 0 381 358 -6 c204 -4 416 -13 495 -21z"/>
</g>
</svg>
