<?xml version="1.0" encoding="utf-8"?>
<!-- Generator: Adobe Illustrator 16.0.0, SVG Export Plug-In . SVG Version: 6.00 Build 0)  -->
<!DOCTYPE svg PUBLIC "-//W3C//DTD SVG 1.1//EN" "http://www.w3.org/Graphics/SVG/1.1/DTD/svg11.dtd">
<svg version="1.1" id="Calque_1" xmlns="http://www.w3.org/2000/svg" xmlns:xlink="http://www.w3.org/1999/xlink" x="0px" y="0px"
	 width="467.977px" height="467.977px" viewBox="0 0 467.977 467.977" enable-background="new 0 0 467.977 467.977"
	 xml:space="preserve">
<path fill="#E1E7E8" d="M438.709,206.948c-0.117-0.158-0.22-0.333-0.297-0.518c-0.053-0.12-5.319-12.161-23.984-21.348
	c-1.929-0.95-3.925-1.828-6.013-2.654c-7.344-3.014-22.42-8.48-41.16-11.386c-1.267-0.195-2.16-1.348-2.035-2.624
	c0.902-9.267,0.685-16.542,0.683-16.613c-0.023-0.692,0.256-1.36,0.756-1.835c0.506-0.477,1.19-0.718,1.875-0.652l2.14,0.191
	c1.275,0.023,2.193-0.689,2.484-1.693l9.073-29.819c0.35-1.157,1.502-1.873,2.697-1.684l2.087,0.335
	c0.185,0.026,0.388,0.044,0.574,0.044c0.501,0,0.728-0.066,1.509-0.848c5.373-5.776,9.475-12.141,12.483-19.398
	c0.059-0.146,0.132-0.286,0.222-0.416c0.699-1.05,1.189-2.222,1.71-3.459l0.231-0.555c6.872-18.576-7.864-31.819-10.887-34.285
	c-0.01-0.006-0.019-0.014-0.028-0.023c-20.669-14.743-37.482-16.932-45.691-16.932c-1.229,0-2.404,0.049-3.485,0.146
	c-0.393,0.04-0.784-0.026-1.148-0.18c-8.492-3.561-16.545-5.365-23.932-5.365c-18.188,0-28.723,10.589-35.063,18.557
	c-0.714,0.891-1.951,1.162-2.972,0.659c-5.417-2.698-16.014-7.222-26.095-7.222c-3.074,0-5.923,0.422-8.461,1.254
	c-6.267,1.958-10.729,6.149-13.667,12.828c-2.517,7.182-2.343,13.617,0.582,18.956c1.732,3.117,4.197,5.113,6.154,6.504
	c0.731,0.519,1.114,1.405,0.991,2.297c-0.12,0.893-0.728,1.642-1.576,1.946c-2.503,0.902-5.726,2.734-8.844,4.508l-0.72,0.408
	c-0.296,0.166-0.621,0.27-0.956,0.302l-0.313,0.267c-0.104,0.09-0.218,0.172-0.335,0.243c-6.456,3.859-12.233,8.962-17.173,15.166
	c-0.081,0.101-0.17,0.198-0.269,0.286l-0.326,0.297l-1.081,2.44c0.184,0.63,0.739,1.846,1.088,2.617
	c1.259,2.765,2.167,4.763,1.173,6.47c-0.491,0.843-1.44,1.316-2.401,1.181c-4.459-0.578-9.042-0.871-13.629-0.871
	c-32.666,0-57.848,14.41-62.564,17.301c-94.38,51.935-76.447,184.238-76.24,185.561c5.906,59.109,44.657,89.005,115.196,89.005
	c4.493,0,9.385-0.123,14.54-0.368l41.624-2.322c26.102-2.095,45.829-17.616,52.713-41.516c0.301-1.036,1.245-1.75,2.323-1.75h84.65
	c0.586,0,1.147-0.281,1.503-0.751c0.778-1.133,7.915-11.971,3.832-23.48c-3.46-9.633-13.74-16.828-30.552-21.379l-26.676-3.818
	c-0.926-0.133-1.691-0.789-1.967-1.683l-11.556-37.498c-0.03-0.095-0.055-0.192-0.07-0.289c-0.326-1.827-0.979-3.687-1.667-5.653
	l-0.463-1.332c-0.317-0.926-0.047-1.951,0.687-2.598c12.48-11.014,25.157-24.595,35.702-38.24c0.115-0.149,0.247-0.283,0.395-0.401
	c10.65-8.615,23.984-17.419,42.135-17.419c13.196,0,27.11,4.876,41.362,14.498c-0.017-0.01-0.021-0.015-0.021-0.015
	s0.138,0.093,0.326,0.236c3.918,2.928,8.289,4.541,12.309,4.541c1.885,0,3.73-0.352,5.493-1.043c0.196-0.14,0.405-0.274,0.608-0.407
	l0.249-0.163C442.776,229.664,448.107,219.358,438.709,206.948z"/>
<g>
	<defs>
		<path id="SVGID_1_" d="M115.816,408.617c-10.04-7.748-18.025-17.149-23.516-28.672c-4.852-9.805-8.221-20.653-9.333-32.849
			c0-0.068-0.101-0.741-0.202-1.45c-1.314-9.097-7.647-63.979,18.564-112.597c16.003-30.357,44.607-58.016,94.37-69.875
			l-4.178-0.876c0.371-0.134,0.539-0.437,0.91-0.673c0.337-0.236,0.64-0.439,0.942-0.742c0.373-0.439,0.541-1.011,0.742-1.62
			c0.069-0.302,0.337-0.505,0.337-0.808l12.871-34.229l-13.511-1.653c-8.926,0-15.801,0.978-19.844,1.653
			c-0.168,0-0.269-0.136-0.438-0.104c-0.471,0.104-0.809,0.305-1.314,0.373c-1.178,0.27-1.954,0.505-2.054,0.505
			c-52.357,12.229-81.904,43.124-98.345,77.017c-26.213,52.762-19.879,112.294-18.564,122.165c0.101,0.741,0.202,1.517,0.202,1.585
			c1.111,13.241,4.48,24.999,9.333,35.645c8.759,19.911,23.213,34.737,43.63,44.136c3.37,1.653,6.368,2.664,9.4,3.773V408.617z"/>
	</defs>
	<clipPath id="SVGID_2_">
		<use xlink:href="#SVGID_1_"  overflow="visible"/>
	</clipPath>
	<g clip-path="url(#SVGID_2_)">
		<polygon fill="#1C3E40" points="225.011,137.906 91.322,4.219 90.109,5.43 223.8,139.12 357.486,272.807 358.699,271.594 		"/>
		<polygon fill="#1C3E40" points="43.211,4.219 41.998,5.43 175.686,139.12 309.374,272.807 310.585,271.594 176.898,137.906 		"/>
		<polygon fill="#1C3E40" points="52.846,4.219 51.634,5.43 185.322,139.12 319.01,272.807 320.223,271.594 186.534,137.906 		"/>
		<polygon fill="#1C3E40" points="62.449,4.219 61.236,5.43 194.924,139.12 328.611,272.807 329.825,271.594 196.136,137.906 		"/>
		<polygon fill="#1C3E40" points="72.05,4.219 70.837,5.43 204.526,139.12 338.216,272.807 339.428,271.594 205.738,137.906 		"/>
		<polygon fill="#1C3E40" points="81.687,4.219 80.474,5.43 214.161,139.12 347.851,272.807 349.063,271.594 215.375,137.906 		"/>
		<polygon fill="#1C3E40" points="-32.763,4.219 -33.976,5.43 99.711,139.12 233.401,272.807 234.612,271.594 100.924,137.906 		"/>
		<polygon fill="#1C3E40" points="-23.128,4.219 -24.341,5.43 109.348,139.12 243.037,272.807 244.25,271.594 110.56,137.906 		"/>
		<polygon fill="#1C3E40" points="-13.526,4.219 -14.739,5.43 118.95,139.12 252.639,272.807 253.852,271.594 120.163,137.906 		"/>
		<polygon fill="#1C3E40" points="-3.89,4.219 -5.103,5.43 128.585,139.12 262.273,272.807 263.487,271.594 129.799,137.906 		"/>
		<polygon fill="#1C3E40" points="5.745,4.219 4.533,5.43 138.221,139.12 271.908,272.807 273.123,271.594 139.434,137.906 		"/>
		<polygon fill="#1C3E40" points="15.349,4.219 14.135,5.43 147.823,139.12 281.511,272.807 282.725,271.594 149.036,137.906 		"/>
		<polygon fill="#1C3E40" points="24.951,4.219 23.737,5.43 157.425,139.12 291.113,272.807 292.326,271.594 158.638,137.906 		"/>
		<polygon fill="#1C3E40" points="34.586,4.219 33.373,5.43 167.062,139.12 300.748,272.807 301.962,271.594 168.274,137.906 		"/>
		<polygon fill="#1C3E40" points="175.686,272.807 176.898,271.594 43.211,137.906 -90.477,4.219 -91.69,5.43 41.998,139.12 		"/>
		<polygon fill="#1C3E40" points="185.322,272.807 186.534,271.594 52.846,137.906 -80.84,4.219 -82.055,5.43 51.634,139.12 		"/>
		<polygon fill="#1C3E40" points="194.924,272.807 196.136,271.594 62.449,137.906 -71.239,4.219 -72.453,5.43 61.236,139.12 		"/>
		<polygon fill="#1C3E40" points="204.526,272.807 205.738,271.594 72.05,137.906 -61.637,4.219 -62.85,5.43 70.837,139.12 		"/>
		<polygon fill="#1C3E40" points="214.161,272.807 215.375,271.594 81.687,137.906 -52.001,4.219 -53.214,5.43 80.474,139.12 		"/>
		<polygon fill="#1C3E40" points="223.8,272.807 225.011,271.594 91.322,137.906 -42.365,4.219 -43.578,5.43 90.109,139.12 		"/>
		<polygon fill="#1C3E40" points="-90.477,137.906 -91.69,139.12 41.998,272.807 175.686,406.495 176.898,405.28 43.211,271.594 		
			"/>
		<polygon fill="#1C3E40" points="-80.84,137.906 -82.055,139.12 51.634,272.807 185.322,406.495 186.534,405.28 52.846,271.594 		
			"/>
		<polygon fill="#1C3E40" points="-71.239,137.906 -72.453,139.12 61.236,272.807 194.924,406.495 196.136,405.28 62.449,271.594 		
			"/>
		<polygon fill="#1C3E40" points="-61.637,137.906 -62.85,139.12 70.837,272.807 204.526,406.495 205.738,405.28 72.05,271.594 		
			"/>
		<polygon fill="#1C3E40" points="-52.001,137.906 -53.214,139.12 80.474,272.807 214.161,406.495 215.375,405.28 81.687,271.594 		
			"/>
		<polygon fill="#1C3E40" points="-42.365,137.906 -43.578,139.12 90.109,272.807 223.8,406.495 225.011,405.28 91.322,271.594 		
			"/>
		<polygon fill="#1C3E40" points="-32.763,137.906 -33.976,139.12 99.711,272.807 233.401,406.495 234.612,405.28 100.924,271.594 
					"/>
		
			<rect x="-51.422" y="204.499" transform="matrix(-0.7071 -0.7071 0.7071 -0.7071 -71.6154 381.0495)" fill="#1C3E40" width="189.063" height="1.715"/>
		
			<rect x="-41.82" y="204.499" transform="matrix(0.7071 0.7071 -0.7071 0.7071 160.6474 22.8742)" fill="#1C3E40" width="189.063" height="1.716"/>
		
			<rect x="-32.184" y="204.499" transform="matrix(0.7071 0.7071 -0.7071 0.7071 163.4698 16.0604)" fill="#1C3E40" width="189.063" height="1.716"/>
		
			<rect x="-22.549" y="204.499" transform="matrix(0.7071 0.7071 -0.7071 0.7071 166.2918 9.2475)" fill="#1C3E40" width="189.063" height="1.715"/>
		
			<rect x="-12.946" y="204.499" transform="matrix(0.7071 0.7071 -0.7071 0.7071 169.1052 2.4583)" fill="#1C3E40" width="189.062" height="1.716"/>
		
			<rect x="-3.344" y="204.499" transform="matrix(0.7071 0.7071 -0.7071 0.7071 171.9176 -4.3314)" fill="#1C3E40" width="189.062" height="1.716"/>
		
			<rect x="6.292" y="204.499" transform="matrix(0.7071 0.7071 -0.7071 0.7071 174.7392 -11.1455)" fill="#1C3E40" width="189.063" height="1.716"/>
		
			<rect x="-70.66" y="338.185" transform="matrix(-0.7071 -0.7071 0.7071 -0.7071 -198.9891 595.6625)" fill="#1C3E40" width="189.063" height="1.716"/>
		
			<rect x="-61.058" y="338.185" transform="matrix(-0.7071 -0.7071 0.7071 -0.7071 -182.597 602.4524)" fill="#1C3E40" width="189.063" height="1.717"/>
		
			<rect x="-51.422" y="338.185" transform="matrix(-0.7071 -0.7071 0.7071 -0.7071 -166.1472 609.2665)" fill="#1C3E40" width="189.064" height="1.716"/>
		
			<rect x="-41.82" y="338.185" transform="matrix(-0.7071 -0.7071 0.7071 -0.7071 -149.7551 616.0563)" fill="#1C3E40" width="189.064" height="1.717"/>
		
			<rect x="-32.184" y="338.185" transform="matrix(-0.7071 -0.7071 0.7071 -0.7071 -133.306 622.8695)" fill="#1C3E40" width="189.063" height="1.717"/>
		
			<rect x="-22.549" y="338.185" transform="matrix(-0.7071 -0.7071 0.7071 -0.7071 -116.857 629.6832)" fill="#1C3E40" width="189.064" height="1.716"/>
		
			<rect x="-12.947" y="338.185" transform="matrix(-0.7071 -0.7071 0.7071 -0.7071 -100.4653 636.4728)" fill="#1C3E40" width="189.064" height="1.716"/>
		
			<rect x="-3.345" y="338.185" transform="matrix(-0.7071 -0.7071 0.7071 -0.7071 -84.0741 643.2622)" fill="#1C3E40" width="189.064" height="1.717"/>
		
			<rect x="6.291" y="338.185" transform="matrix(-0.7071 -0.7071 0.7071 -0.7071 -67.6235 650.0764)" fill="#1C3E40" width="189.064" height="1.716"/>
	</g>
</g>
<g>
	<path fill="#1C3E40" d="M336.327,84.2c0.438,0.17,0.911,0.27,1.417,0.305c2.021,0.201,4.043-0.909,4.816-2.931
		c0.336-0.643,2.426-6.3-0.438-12.063c-2.121-4.345-6.301-7.411-12.365-9.097c-2.694-0.571-5.221,0.775-5.928,3.37
		c-0.708,2.56,0.774,5.188,3.368,5.897c2.224,0.604,5.155,1.851,6.301,4.009c0.978,1.918,0.202,4.143,0.167,4.313
		C332.654,80.426,333.868,83.188,336.327,84.2z"/>
	<path fill="#1C3E40" d="M221.811,291.303l-70.584,7.075c-2.291,0.236-3.908,2.156-3.74,4.447c0.135,2.325,2.257,4.01,4.481,3.74
		l70.382-6.908c13.645-0.773,26.515,3.944,36.655,13.173c10.612,9.773,16.779,23.351,17.386,38.106
		c1.28,31.031-19.306,54.48-49.763,56.904l-41.474,2.19c-76.986,4.11-117.752-23.078-123.682-83.353
		c-0.978-6.537-22.911-162.326,111.586-194.232c2.256-0.539,3.705-2.728,3.167-5.021c-0.573-2.154-2.797-3.604-4.919-3.098
		C29.296,158.052,53.015,326.309,53.251,327.723c6.03,60.408,45.651,91.035,117.583,91.035c4.751,0,9.669-0.135,14.656-0.37
		l41.643-2.324c35.274-2.829,58.927-29.751,57.443-65.396c-0.706-17.048-7.746-32.679-20.146-43.832
		C252.737,296.054,237.713,290.797,221.811,291.303z"/>
	<path fill="#1C3E40" d="M174.643,325.77c-1.416-1.788-4.078-2.057-5.795-0.606c-1.753,1.516-1.989,4.108-0.506,5.896l21.46,25.774
		l-19.876,27.053c-1.348,1.921-0.944,4.48,0.909,5.76c0.742,0.643,1.583,0.879,2.393,0.879c1.281,0,2.494-0.609,3.302-1.652
		l18.665-25.506l7.413,8.965l-7.952,10.781c-1.349,1.919-0.942,4.479,0.843,5.896c0.774,0.505,1.583,0.742,2.458,0.742
		c1.178,0,2.458-0.61,3.301-1.621l6.737-9.229l7.38,8.69c0.774,1.044,1.887,1.55,3.101,1.55c0.976,0,1.851-0.269,2.626-1.011
		c1.719-1.447,1.987-4.008,0.505-5.795l-8.657-10.41l6.938-9.195l20.183,24.223c0.741,0.909,1.922,1.414,3.064,1.414
		c0.912,0,1.923-0.236,2.664-0.909c1.753-1.549,1.989-4.112,0.506-5.896l-21.363-25.774l19.778-27.055
		c1.382-1.919,1.012-4.479-0.843-5.762c-1.885-1.412-4.479-1.044-5.861,0.912l-18.564,25.37l-7.38-8.828l7.987-10.917
		c1.313-1.917,1.011-4.48-0.945-5.895c-1.851-1.28-4.412-0.911-5.691,0.874l-6.74,9.267l-7.345-8.727
		c-1.381-1.819-4.01-2.057-5.762-0.54c-1.684,1.449-1.955,4.114-0.538,5.795l8.558,10.379l-6.872,9.367L174.643,325.77z
		 M207.053,347.196l7.413,8.86l-6.908,9.368l-7.345-8.863L207.053,347.196z"/>
	<path fill="#1C3E40" d="M440.399,205.489c-0.368-0.874-9.534-21.259-45.482-29.713c-2.121-0.505-4.414,0.874-5.054,3.065
		c-0.439,2.156,0.978,4.48,3.166,4.986c31.639,7.479,39.724,24.897,40.329,25.908c7.816,10.514,2.966,17.183,1.45,18.967
		c-5.829,1.956-11.524-2.659-11.827-3.064c-32.646-22.034-54.883-16.677-74.054-7.175c6.905-11.187,13.005-22.81,16.408-35.142
		c0.606-2.156-0.606-4.345-2.796-4.985c-2.123-0.675-4.481,0.64-5.087,2.829c-20.318,36.793-37.196,33.456-37.196,33.456
		l0.101,1.146c-12.23-25.909-28.707-44.574-49.796-54.75c-18.868-9.196-37.196-9.872-51.278-8.592l2.494-0.369
		C207.289,124.665,249.2,93.972,249.2,93.972c0.338-0.066,0.573-0.337,0.911-0.472c1.615-0.473,3.065-1.517,3.47-3.302
		c0.573-2.56-1.146-5.086-3.673-5.693c-0.1,0-7.715-1.887-10.983-7.682c-1.854-3.368-1.92-7.816-0.136-12.733
		c1.957-4.516,4.988-7.278,9.098-8.627c10.75-3.505,27.087,4.178,32.481,7.38c1.175,0.638,2.458,0.808,3.702,0.47
		c1.247-0.305,2.293-1.113,2.933-2.255c0.709-1.214,14.791-30.089,53.569-13.21c0.877,0.373,1.887,0.472,2.829,0.304
		c0.203,0.069,16.205-2.257,38.511,11.286c-9.469,5.965-9.131,14.288-9.097,14.689c1.516,13.244,12.634,21.801,18.665,25.642
		c-1.717,3.131-3.572,6.232-6.333,9.366l-3.2-0.439c-0.137-0.033-0.204-0.236-0.373-0.236l-16.137-2.121l-0.338-0.033h-0.066
		c-0.033,0-0.102,0-0.169,0c-1.247-0.104-2.458,0.201-3.437,0.976l-20.685,16.306c-1.552,1.247-2.226,3.302-1.552,5.224
		c0.573,1.884,2.156,3.164,4.111,3.334c0.066,0,0.099,0,0.2,0l7.513,0.404l2.125,14.153c0.303,2.222,2.088,3.906,4.313,4.076
		l12.767,1.144c2.258,0.203,4.384-1.212,5.021-3.434l9.064-29.784l2.088,0.335c2.089,0.302,3.031-0.335,4.179-1.483
		c6.301-6.771,10.312-13.678,13.003-20.18c0.944-1.414,1.517-2.897,2.159-4.413c8.118-21.934-11.489-36.994-11.658-37.162
		l-0.104-0.068c-25.233-18.059-45.11-17.721-50.772-17.216c-36.552-15.329-54.713,4.986-61.821,13.915
		c-7.311-3.639-23.352-10.376-36.389-6.1c-6.805,2.125-11.893,6.806-15.126,14.15c-2.832,8.053-2.596,15.128,0.673,21.093
		c1.819,3.269,4.313,5.491,6.872,7.312c-2.897,1.043-6.435,3.098-9.939,5.086h-0.674l-0.975,0.841
		c-6.032,3.606-12.164,8.626-17.825,15.735l-0.706,0.64l-1.448,3.269c-4.146,6.031-7.379,13.274-9.739,22l-0.909,5.828
		c-1.211,6.031-2.897,11.492-2.831,18.836c0,1.28,0.675,2.56,1.856,3.368c1.044,0.741,2.458,0.876,3.771,0.472
		c0.338-0.236,35.038-13.04,69.001,3.504c24.797,12.027,43.227,36.519,54.851,72.671c-8.021,9.266-16.206,17.487-23.585,24.124
		c-13.577-27.696-47.506-49.864-72.54-49.864c-2.391,0-4.143,1.92-4.143,4.244c0,2.293,1.752,4.079,4.143,4.079
		c22.777,0,54.782,21.53,66.104,47.304c-10.883,9.498-19.001,15.529-19.204,15.667c-1.819,1.28-2.324,3.84-0.978,5.76
		c0.843,1.146,2.054,1.684,3.402,1.684c0.81,0,1.585-0.27,2.359-0.775c0.876-0.639,7.883-5.795,17.183-13.744
		c0.269,1.18,0.808,2.189,1.01,3.233l12.195,40.702c0.473,1.581,1.821,2.761,3.473,2.963l11.722,1.651
		c27.526,6.569,21.836,32.646,20.924,36.251h-36.285c-2.359,0-4.244,1.855-4.244,4.212c0,2.323,1.885,4.177,4.244,4.177h59.06
		c1.351,0,2.632-0.639,3.438-1.717c0.371-0.538,8.828-12.634,4.178-25.74c-3.738-10.409-14.455-18.128-32.344-22.944l-26.82-3.841
		l-11.555-37.499c-0.438-2.458-1.381-4.887-2.222-7.345c11.185-9.873,24.223-23.314,36.013-38.576
		c14.623-11.825,40.701-29.75,80.626-2.796c0.403,0.234,9.939,8.287,20.651,3.84c0.338-0.269,0.808-0.538,1.147-0.773
		C444.613,231.164,450.811,219.238,440.399,205.489z M367.121,141.982l-5.021-0.407l-3.065-20.11l6.504-5.089l0.236-0.27l8.927,1.28
		L367.121,141.982z"/>
</g>
<g>
	<path fill="#1C3E40" d="M336.327,84.2c0.438,0.17,0.911,0.27,1.417,0.305c2.021,0.201,4.043-0.909,4.816-2.931
		c0.336-0.643,2.426-6.3-0.438-12.063c-2.121-4.345-6.301-7.411-12.365-9.097c-2.694-0.571-5.221,0.775-5.928,3.37
		c-0.708,2.56,0.774,5.188,3.368,5.897c2.224,0.604,5.155,1.851,6.301,4.009c0.978,1.918,0.202,4.143,0.167,4.313
		C332.654,80.426,333.868,83.188,336.327,84.2z"/>
	<path fill="#1C3E40" d="M221.811,291.303l-70.584,7.075c-2.291,0.236-3.908,2.156-3.74,4.447c0.135,2.325,2.257,4.01,4.481,3.74
		l70.382-6.908c13.645-0.773,26.515,3.944,36.655,13.173c10.612,9.773,16.779,23.351,17.386,38.106
		c1.28,31.031-19.306,54.48-49.763,56.904l-41.474,2.19c-76.986,4.11-117.752-23.078-123.682-83.353
		c-0.978-6.537-22.911-162.326,111.586-194.232c2.256-0.539,3.705-2.728,3.167-5.021c-0.573-2.154-2.797-3.604-4.919-3.098
		C29.296,158.052,53.015,326.309,53.251,327.723c6.03,60.408,45.651,91.035,117.583,91.035c4.751,0,9.669-0.135,14.656-0.37
		l41.643-2.324c35.274-2.829,58.927-29.751,57.443-65.396c-0.706-17.048-7.746-32.679-20.146-43.832
		C252.737,296.054,237.713,290.797,221.811,291.303z"/>
	<path fill="#1C3E40" d="M174.643,325.77c-1.416-1.788-4.078-2.057-5.795-0.606c-1.753,1.516-1.989,4.108-0.506,5.896l21.46,25.774
		l-19.876,27.053c-1.348,1.921-0.944,4.48,0.909,5.76c0.742,0.643,1.583,0.879,2.393,0.879c1.281,0,2.494-0.609,3.302-1.652
		l18.665-25.506l7.413,8.965l-7.952,10.781c-1.349,1.919-0.942,4.479,0.843,5.896c0.774,0.505,1.583,0.742,2.458,0.742
		c1.178,0,2.458-0.61,3.301-1.621l6.737-9.229l7.38,8.69c0.774,1.044,1.887,1.55,3.101,1.55c0.976,0,1.851-0.269,2.626-1.011
		c1.719-1.447,1.987-4.008,0.505-5.795l-8.657-10.41l6.938-9.195l20.183,24.223c0.741,0.909,1.922,1.414,3.064,1.414
		c0.912,0,1.923-0.236,2.664-0.909c1.753-1.549,1.989-4.112,0.506-5.896l-21.363-25.774l19.778-27.055
		c1.382-1.919,1.012-4.479-0.843-5.762c-1.885-1.412-4.479-1.044-5.861,0.912l-18.564,25.37l-7.38-8.828l7.987-10.917
		c1.313-1.917,1.011-4.48-0.945-5.895c-1.851-1.28-4.412-0.911-5.691,0.874l-6.74,9.267l-7.345-8.727
		c-1.381-1.819-4.01-2.057-5.762-0.54c-1.684,1.449-1.955,4.114-0.538,5.795l8.558,10.379l-6.872,9.367L174.643,325.77z
		 M207.053,347.196l7.413,8.86l-6.908,9.368l-7.345-8.863L207.053,347.196z"/>
	<path fill="#1C3E40" d="M440.399,205.489c-0.368-0.874-9.534-21.259-45.482-29.713c-2.121-0.505-4.414,0.874-5.054,3.065
		c-0.439,2.156,0.978,4.48,3.166,4.986c31.639,7.479,39.724,24.897,40.329,25.908c7.816,10.514,2.966,17.183,1.45,18.967
		c-5.829,1.956-11.524-2.659-11.827-3.064c-32.646-22.034-54.883-16.677-74.054-7.175c6.905-11.187,13.005-22.81,16.408-35.142
		c0.606-2.156-0.606-4.345-2.796-4.985c-2.123-0.675-4.481,0.64-5.087,2.829c-20.318,36.793-37.196,33.456-37.196,33.456
		l0.101,1.146c-12.23-25.909-28.707-44.574-49.796-54.75c-18.868-9.196-37.196-9.872-51.278-8.592l2.494-0.369
		C207.289,124.665,249.2,93.972,249.2,93.972c0.338-0.066,0.573-0.337,0.911-0.472c1.615-0.473,3.065-1.517,3.47-3.302
		c0.573-2.56-1.146-5.086-3.673-5.693c-0.1,0-7.715-1.887-10.983-7.682c-1.854-3.368-1.92-7.816-0.136-12.733
		c1.957-4.516,4.988-7.278,9.098-8.627c10.75-3.505,27.087,4.178,32.481,7.38c1.175,0.638,2.458,0.808,3.702,0.47
		c1.247-0.305,2.293-1.113,2.933-2.255c0.709-1.214,14.791-30.089,53.569-13.21c0.877,0.373,1.887,0.472,2.829,0.304
		c0.203,0.069,16.205-2.257,38.511,11.286c-9.469,5.965-9.131,14.288-9.097,14.689c1.516,13.244,12.634,21.801,18.665,25.642
		c-1.717,3.131-3.572,6.232-6.333,9.366l-3.2-0.439c-0.137-0.033-0.204-0.236-0.373-0.236l-16.137-2.121l-0.338-0.033h-0.066
		c-0.033,0-0.102,0-0.169,0c-1.247-0.104-2.458,0.201-3.437,0.976l-20.685,16.306c-1.552,1.247-2.226,3.302-1.552,5.224
		c0.573,1.884,2.156,3.164,4.111,3.334c0.066,0,0.099,0,0.2,0l7.513,0.404l2.125,14.153c0.303,2.222,2.088,3.906,4.313,4.076
		l12.767,1.144c2.258,0.203,4.384-1.212,5.021-3.434l9.064-29.784l2.088,0.335c2.089,0.302,3.031-0.335,4.179-1.483
		c6.301-6.771,10.312-13.678,13.003-20.18c0.944-1.414,1.517-2.897,2.159-4.413c8.118-21.934-11.489-36.994-11.658-37.162
		l-0.104-0.068c-25.233-18.059-45.11-17.721-50.772-17.216c-36.552-15.329-54.713,4.986-61.821,13.915
		c-7.311-3.639-23.352-10.376-36.389-6.1c-6.805,2.125-11.893,6.806-15.126,14.15c-2.832,8.053-2.596,15.128,0.673,21.093
		c1.819,3.269,4.313,5.491,6.872,7.312c-2.897,1.043-6.435,3.098-9.939,5.086h-0.674l-0.975,0.841
		c-6.032,3.606-12.164,8.626-17.825,15.735l-0.706,0.64l-1.448,3.269c-4.146,6.031-7.379,13.274-9.739,22l-0.909,5.828
		c-1.211,6.031-2.897,11.492-2.831,18.836c0,1.28,0.675,2.56,1.856,3.368c1.044,0.741,2.458,0.876,3.771,0.472
		c0.338-0.236,35.038-13.04,69.001,3.504c24.797,12.027,43.227,36.519,54.851,72.671c-8.021,9.266-16.206,17.487-23.585,24.124
		c-13.577-27.696-47.506-49.864-72.54-49.864c-2.391,0-4.143,1.92-4.143,4.244c0,2.293,1.752,4.079,4.143,4.079
		c22.777,0,54.782,21.53,66.104,47.304c-10.883,9.498-19.001,15.529-19.204,15.667c-1.819,1.28-2.324,3.84-0.978,5.76
		c0.843,1.146,2.054,1.684,3.402,1.684c0.81,0,1.585-0.27,2.359-0.775c0.876-0.639,7.883-5.795,17.183-13.744
		c0.269,1.18,0.808,2.189,1.01,3.233l12.195,40.702c0.473,1.581,1.821,2.761,3.473,2.963l11.722,1.651
		c27.526,6.569,21.836,32.646,20.924,36.251h-36.285c-2.359,0-4.244,1.855-4.244,4.212c0,2.323,1.885,4.177,4.244,4.177h59.06
		c1.351,0,2.632-0.639,3.438-1.717c0.371-0.538,8.828-12.634,4.178-25.74c-3.738-10.409-14.455-18.128-32.344-22.944l-26.82-3.841
		l-11.555-37.499c-0.438-2.458-1.381-4.887-2.222-7.345c11.185-9.873,24.223-23.314,36.013-38.576
		c14.623-11.825,40.701-29.75,80.626-2.796c0.403,0.234,9.939,8.287,20.651,3.84c0.338-0.269,0.808-0.538,1.147-0.773
		C444.613,231.164,450.811,219.238,440.399,205.489z M367.121,141.982l-5.021-0.407l-3.065-20.11l6.504-5.089l0.236-0.27l8.927,1.28
		L367.121,141.982z"/>
</g>
</svg>
