<?xml version="1.0" encoding="utf-8"?>
<!-- Generator: Adobe Illustrator 25.2.0, SVG Export Plug-In . SVG Version: 6.00 Build 0)  -->
<svg version="1.1" id="Layer_1" xmlns="http://www.w3.org/2000/svg" xmlns:xlink="http://www.w3.org/1999/xlink" x="0px" y="0px"
	 viewBox="0 0 60 60" style="enable-background:new 0 0 60 60;" xml:space="preserve">
<style type="text/css">
	.st0{display:none;}
	.st1{fill:#F8F6F5;}
</style>
<g id="Visuel">
	<path class="st1" d="M30,0C13.4,0,0,13.4,0,30s13.4,30,30,30s30-13.4,30-30S46.6,0,30,0z M27.9,21.4v3.3h-3.2v-3.1
		c-6.6,0-6.3,0.6-6.1,6.9h9.4v3.3h-9.4c-0.2,6.2-0.3,6.9,6.1,6.9v-3.1h3.2v3.3v3.3c-11.2,0-12.8-0.3-13.1-6.9v-3.3v-3.3v-3.4
		c0.3-6.6,1.9-6.9,13.1-6.9V21.4z M44.7,28.4v3.3v3.4c-0.3,6.6-1.9,6.8-13.1,6.9v-3.3v-3.3h3.2v3.1c6.6,0,6.3-0.6,6.1-6.9h-9.4v-3.3
		H41c0.2-6.2,0.3-6.9-6.1-6.9v3.1h-3.2v-3.3v-3.3c11.2,0,12.8,0.3,13.1,6.9C44.7,25,44.7,28.4,44.7,28.4z"/>
</g>
</svg>
